<svg width="592" height="469" viewBox="0 0 592 469" fill="none" xmlns="http://www.w3.org/2000/svg">
<path d="M0 1H592" stroke="#DEE1E6" stroke-dasharray="6"/>
<path d="M0 105.5H592" stroke="#DEE1E6" stroke-dasharray="6"/>
<path d="M0 210H592" stroke="#DEE1E6" stroke-dasharray="6"/>
<path d="M0 314.5H592" stroke="#DEE1E6" stroke-dasharray="6"/>
<path d="M0 419H592" stroke="#DEE1E6" stroke-dasharray="6"/>
<rect x="29.6001" y="63.7" width="21.312" height="334.4" fill="#636AE8"/>
<rect x="54.4639" y="168.2" width="21.312" height="229.9" fill="#E8618C"/>
<rect x="79.3281" y="268.52" width="21.312" height="129.58" fill="#22CCB2"/>
<rect x="145.04" y="1" width="21.312" height="397.1" fill="#636AE8"/>
<rect x="169.904" y="201.64" width="21.312" height="196.46" fill="#E8618C"/>
<rect x="194.768" y="1" width="21.312" height="397.1" fill="#22CCB2"/>
<rect x="260.48" y="138.94" width="21.312" height="259.16" fill="#636AE8"/>
<rect x="285.344" y="46.98" width="21.312" height="351.12" fill="#E8618C"/>
<rect x="310.208" y="130.58" width="21.312" height="267.52" fill="#22CCB2"/>
<rect x="375.92" y="155.66" width="21.312" height="242.44" fill="#636AE8"/>
<rect x="400.784" y="134.76" width="21.312" height="263.34" fill="#E8618C"/>
<rect x="425.648" y="268.52" width="21.312" height="129.58" fill="#22CCB2"/>
<rect x="491.36" y="138.94" width="21.312" height="259.16" fill="#636AE8"/>
<rect x="516.224" y="34.44" width="21.312" height="363.66" fill="#E8618C"/>
<rect x="541.088" y="9.36" width="21.312" height="388.74" fill="#22CCB2"/>
<circle cx="159.5" cy="458" r="6" fill="#636AE8"/>
<path d="M179.324 457.909C179.324 458.983 179.13 459.911 178.742 460.693C178.354 461.475 177.822 462.079 177.146 462.503C176.47 462.927 175.698 463.139 174.83 463.139C173.961 463.139 173.189 462.927 172.513 462.503C171.837 462.079 171.305 461.475 170.917 460.693C170.529 459.911 170.335 458.983 170.335 457.909C170.335 456.835 170.529 455.907 170.917 455.125C171.305 454.343 171.837 453.74 172.513 453.315C173.189 452.891 173.961 452.679 174.83 452.679C175.698 452.679 176.47 452.891 177.146 453.315C177.822 453.74 178.354 454.343 178.742 455.125C179.13 455.907 179.324 456.835 179.324 457.909ZM178.131 457.909C178.131 457.027 177.983 456.283 177.688 455.677C177.397 455.07 177 454.611 176.5 454.3C176.003 453.988 175.446 453.832 174.83 453.832C174.213 453.832 173.655 453.988 173.154 454.3C172.657 454.611 172.261 455.07 171.966 455.677C171.674 456.283 171.528 457.027 171.528 457.909C171.528 458.791 171.674 459.535 171.966 460.141C172.261 460.748 172.657 461.207 173.154 461.518C173.655 461.83 174.213 461.986 174.83 461.986C175.446 461.986 176.003 461.83 176.5 461.518C177 461.207 177.397 460.748 177.688 460.141C177.983 459.535 178.131 458.791 178.131 457.909ZM182.411 458.406V463H181.238V455.364H182.371V456.557H182.471C182.65 456.169 182.922 455.857 183.286 455.622C183.651 455.384 184.121 455.264 184.698 455.264C185.215 455.264 185.668 455.37 186.055 455.582C186.443 455.791 186.745 456.109 186.96 456.537C187.176 456.961 187.283 457.498 187.283 458.148V463H186.11V458.227C186.11 457.627 185.954 457.16 185.643 456.825C185.331 456.487 184.904 456.318 184.36 456.318C183.986 456.318 183.651 456.399 183.356 456.562C183.064 456.724 182.834 456.961 182.665 457.273C182.496 457.584 182.411 457.962 182.411 458.406ZM193.802 458.088V459.182H189.348V458.088H193.802ZM199.188 455.364V456.358H195.23V455.364H199.188ZM196.384 453.534H197.557V460.812C197.557 461.144 197.605 461.393 197.701 461.558C197.801 461.721 197.927 461.83 198.079 461.886C198.235 461.939 198.399 461.966 198.571 461.966C198.701 461.966 198.807 461.959 198.89 461.946C198.972 461.929 199.039 461.916 199.088 461.906L199.327 462.96C199.248 462.99 199.136 463.02 198.994 463.05C198.851 463.083 198.671 463.099 198.452 463.099C198.121 463.099 197.796 463.028 197.478 462.886C197.163 462.743 196.901 462.526 196.692 462.234C196.487 461.943 196.384 461.575 196.384 461.131V453.534ZM200.953 463V455.364H202.126V463H200.953ZM201.549 454.091C201.321 454.091 201.123 454.013 200.958 453.857C200.795 453.701 200.714 453.514 200.714 453.295C200.714 453.077 200.795 452.889 200.958 452.734C201.123 452.578 201.321 452.5 201.549 452.5C201.778 452.5 201.974 452.578 202.136 452.734C202.302 452.889 202.385 453.077 202.385 453.295C202.385 453.514 202.302 453.701 202.136 453.857C201.974 454.013 201.778 454.091 201.549 454.091ZM204.275 463V455.364H205.409V456.557H205.508C205.667 456.149 205.924 455.833 206.279 455.607C206.633 455.379 207.059 455.264 207.556 455.264C208.06 455.264 208.479 455.379 208.814 455.607C209.152 455.833 209.416 456.149 209.605 456.557H209.684C209.88 456.162 210.173 455.849 210.564 455.617C210.955 455.382 211.424 455.264 211.971 455.264C212.654 455.264 213.212 455.478 213.646 455.906C214.081 456.33 214.298 456.991 214.298 457.889V463H213.124V457.889C213.124 457.326 212.97 456.923 212.662 456.681C212.354 456.439 211.991 456.318 211.573 456.318C211.036 456.318 210.62 456.481 210.325 456.805C210.03 457.127 209.883 457.535 209.883 458.028V463H208.69V457.77C208.69 457.336 208.549 456.986 208.267 456.721C207.985 456.452 207.623 456.318 207.178 456.318C206.874 456.318 206.588 456.399 206.323 456.562C206.061 456.724 205.849 456.95 205.687 457.238C205.528 457.523 205.448 457.853 205.448 458.227V463H204.275ZM219.645 463.159C218.909 463.159 218.274 462.997 217.741 462.672C217.21 462.344 216.801 461.886 216.513 461.3C216.228 460.71 216.085 460.024 216.085 459.241C216.085 458.459 216.228 457.77 216.513 457.173C216.801 456.573 217.202 456.106 217.716 455.771C218.233 455.433 218.836 455.264 219.525 455.264C219.923 455.264 220.316 455.33 220.704 455.463C221.091 455.596 221.444 455.811 221.763 456.109C222.081 456.404 222.334 456.795 222.523 457.283C222.712 457.77 222.807 458.37 222.807 459.082V459.58H216.92V458.565H221.613C221.613 458.134 221.527 457.75 221.355 457.412C221.186 457.074 220.944 456.807 220.629 456.612C220.318 456.416 219.95 456.318 219.525 456.318C219.058 456.318 218.654 456.434 218.312 456.666C217.974 456.895 217.714 457.193 217.532 457.561C217.349 457.929 217.258 458.323 217.258 458.744V459.42C217.258 459.997 217.358 460.486 217.557 460.887C217.759 461.285 218.039 461.588 218.397 461.797C218.755 462.002 219.171 462.105 219.645 462.105C219.953 462.105 220.231 462.062 220.48 461.976C220.732 461.886 220.949 461.754 221.131 461.578C221.314 461.399 221.454 461.177 221.554 460.912L222.687 461.23C222.568 461.615 222.367 461.953 222.086 462.244C221.804 462.533 221.456 462.758 221.042 462.92C220.627 463.08 220.162 463.159 219.645 463.159Z" fill="#171A1F"/>
<circle cx="249.5" cy="458" r="6" fill="#E8618C"/>
<path d="M264.134 452.818V463H262.901V454.111H262.841L260.355 455.761V454.509L262.901 452.818H264.134ZM270.244 463.139C269.66 463.139 269.135 463.023 268.668 462.791C268.2 462.559 267.826 462.241 267.544 461.837C267.262 461.432 267.108 460.972 267.082 460.455H268.275C268.321 460.915 268.53 461.296 268.901 461.598C269.276 461.896 269.723 462.045 270.244 462.045C270.661 462.045 271.032 461.948 271.357 461.752C271.685 461.557 271.942 461.288 272.128 460.947C272.317 460.602 272.411 460.213 272.411 459.778C272.411 459.334 272.313 458.938 272.118 458.59C271.926 458.239 271.661 457.962 271.322 457.76C270.984 457.558 270.598 457.455 270.164 457.452C269.853 457.448 269.533 457.496 269.205 457.596C268.876 457.692 268.606 457.816 268.394 457.969L267.241 457.83L267.857 452.818H273.147V453.912H268.891L268.533 456.915H268.593C268.802 456.749 269.064 456.612 269.379 456.502C269.693 456.393 270.022 456.338 270.363 456.338C270.986 456.338 271.541 456.487 272.028 456.786C272.519 457.08 272.903 457.485 273.182 457.999C273.464 458.512 273.604 459.099 273.604 459.759C273.604 460.408 273.459 460.988 273.167 461.499C272.879 462.006 272.481 462.407 271.974 462.702C271.467 462.993 270.89 463.139 270.244 463.139ZM279.537 463V455.364H280.67V456.557H280.77C280.929 456.149 281.186 455.833 281.54 455.607C281.895 455.379 282.321 455.264 282.818 455.264C283.322 455.264 283.741 455.379 284.076 455.607C284.414 455.833 284.677 456.149 284.866 456.557H284.946C285.141 456.162 285.435 455.849 285.826 455.617C286.217 455.382 286.686 455.264 287.233 455.264C287.916 455.264 288.474 455.478 288.908 455.906C289.342 456.33 289.559 456.991 289.559 457.889V463H288.386V457.889C288.386 457.326 288.232 456.923 287.924 456.681C287.616 456.439 287.253 456.318 286.835 456.318C286.298 456.318 285.882 456.481 285.587 456.805C285.292 457.127 285.145 457.535 285.145 458.028V463H283.952V457.77C283.952 457.336 283.811 456.986 283.529 456.721C283.247 456.452 282.884 456.318 282.44 456.318C282.135 456.318 281.85 456.399 281.585 456.562C281.323 456.724 281.111 456.95 280.949 457.238C280.79 457.523 280.71 457.853 280.71 458.227V463H279.537ZM291.705 463V455.364H292.878V463H291.705ZM292.301 454.091C292.073 454.091 291.875 454.013 291.71 453.857C291.547 453.701 291.466 453.514 291.466 453.295C291.466 453.077 291.547 452.889 291.71 452.734C291.875 452.578 292.073 452.5 292.301 452.5C292.53 452.5 292.726 452.578 292.888 452.734C293.054 452.889 293.137 453.077 293.137 453.295C293.137 453.514 293.054 453.701 292.888 453.857C292.726 454.013 292.53 454.091 292.301 454.091ZM296.2 458.406V463H295.027V455.364H296.161V456.557H296.26C296.439 456.169 296.711 455.857 297.075 455.622C297.44 455.384 297.911 455.264 298.487 455.264C299.004 455.264 299.457 455.37 299.844 455.582C300.232 455.791 300.534 456.109 300.749 456.537C300.965 456.961 301.072 457.498 301.072 458.148V463H299.899V458.227C299.899 457.627 299.743 457.16 299.432 456.825C299.12 456.487 298.693 456.318 298.149 456.318C297.775 456.318 297.44 456.399 297.145 456.562C296.853 456.724 296.623 456.961 296.454 457.273C296.285 457.584 296.2 457.962 296.2 458.406ZM308.327 452.818V463H307.154V452.818H308.327ZM312.723 463.179C312.239 463.179 311.8 463.088 311.406 462.906C311.011 462.72 310.698 462.453 310.466 462.105C310.234 461.754 310.118 461.33 310.118 460.832C310.118 460.395 310.204 460.04 310.377 459.768C310.549 459.493 310.779 459.278 311.068 459.122C311.356 458.966 311.674 458.85 312.022 458.774C312.374 458.695 312.727 458.632 313.081 458.585C313.545 458.526 313.922 458.481 314.21 458.451C314.502 458.418 314.714 458.363 314.846 458.287C314.982 458.211 315.05 458.078 315.05 457.889V457.849C315.05 457.359 314.916 456.978 314.647 456.706C314.382 456.434 313.98 456.298 313.439 456.298C312.879 456.298 312.44 456.421 312.122 456.666C311.804 456.911 311.58 457.173 311.451 457.452L310.337 457.054C310.536 456.59 310.801 456.229 311.132 455.97C311.467 455.708 311.832 455.526 312.226 455.423C312.624 455.317 313.015 455.264 313.4 455.264C313.645 455.264 313.926 455.294 314.245 455.354C314.566 455.41 314.876 455.528 315.174 455.707C315.476 455.886 315.726 456.156 315.925 456.517C316.124 456.878 316.223 457.362 316.223 457.969V463H315.05V461.966H314.99C314.911 462.132 314.778 462.309 314.593 462.498C314.407 462.687 314.16 462.848 313.852 462.98C313.544 463.113 313.167 463.179 312.723 463.179ZM312.902 462.125C313.366 462.125 313.757 462.034 314.076 461.852C314.397 461.669 314.639 461.434 314.801 461.146C314.967 460.857 315.05 460.554 315.05 460.236V459.162C315 459.222 314.891 459.276 314.722 459.326C314.556 459.372 314.364 459.414 314.145 459.45C313.93 459.483 313.719 459.513 313.514 459.54C313.312 459.563 313.148 459.583 313.022 459.599C312.717 459.639 312.432 459.704 312.167 459.793C311.905 459.879 311.693 460.01 311.53 460.186C311.371 460.358 311.292 460.594 311.292 460.892C311.292 461.3 311.442 461.608 311.744 461.817C312.049 462.022 312.435 462.125 312.902 462.125ZM321.686 455.364V456.358H317.729V455.364H321.686ZM318.882 453.534H320.055V460.812C320.055 461.144 320.103 461.393 320.199 461.558C320.299 461.721 320.425 461.83 320.577 461.886C320.733 461.939 320.897 461.966 321.069 461.966C321.199 461.966 321.305 461.959 321.388 461.946C321.47 461.929 321.537 461.916 321.586 461.906L321.825 462.96C321.746 462.99 321.635 463.02 321.492 463.05C321.349 463.083 321.169 463.099 320.95 463.099C320.619 463.099 320.294 463.028 319.976 462.886C319.661 462.743 319.399 462.526 319.19 462.234C318.985 461.943 318.882 461.575 318.882 461.131V453.534ZM326.57 463.159C325.835 463.159 325.2 462.997 324.666 462.672C324.136 462.344 323.727 461.886 323.438 461.3C323.153 460.71 323.011 460.024 323.011 459.241C323.011 458.459 323.153 457.77 323.438 457.173C323.727 456.573 324.128 456.106 324.642 455.771C325.159 455.433 325.762 455.264 326.451 455.264C326.849 455.264 327.242 455.33 327.629 455.463C328.017 455.596 328.37 455.811 328.688 456.109C329.007 456.404 329.26 456.795 329.449 457.283C329.638 457.77 329.732 458.37 329.732 459.082V459.58H323.846V458.565H328.539C328.539 458.134 328.453 457.75 328.281 457.412C328.112 457.074 327.87 456.807 327.555 456.612C327.243 456.416 326.875 456.318 326.451 456.318C325.984 456.318 325.579 456.434 325.238 456.666C324.9 456.895 324.64 457.193 324.458 457.561C324.275 457.929 324.184 458.323 324.184 458.744V459.42C324.184 459.997 324.284 460.486 324.482 460.887C324.685 461.285 324.965 461.588 325.323 461.797C325.681 462.002 326.097 462.105 326.57 462.105C326.879 462.105 327.157 462.062 327.406 461.976C327.658 461.886 327.875 461.754 328.057 461.578C328.239 461.399 328.38 461.177 328.48 460.912L329.613 461.23C329.494 461.615 329.293 461.953 329.012 462.244C328.73 462.533 328.382 462.758 327.968 462.92C327.553 463.08 327.088 463.159 326.57 463.159Z" fill="#171A1F"/>
<circle cx="355.5" cy="458" r="6" fill="#22CCB2"/>
<path d="M369.994 463.139C369.338 463.139 368.753 463.027 368.239 462.801C367.729 462.576 367.323 462.263 367.021 461.862C366.723 461.457 366.561 460.988 366.534 460.455H367.787C367.813 460.783 367.926 461.066 368.125 461.305C368.324 461.54 368.584 461.722 368.906 461.852C369.227 461.981 369.583 462.045 369.974 462.045C370.412 462.045 370.8 461.969 371.138 461.817C371.476 461.664 371.741 461.452 371.933 461.18C372.125 460.909 372.222 460.594 372.222 460.236C372.222 459.861 372.129 459.531 371.943 459.246C371.758 458.958 371.486 458.733 371.128 458.57C370.77 458.408 370.332 458.327 369.815 458.327H369V457.233H369.815C370.22 457.233 370.574 457.16 370.879 457.014C371.188 456.868 371.428 456.663 371.6 456.398C371.776 456.133 371.864 455.821 371.864 455.463C371.864 455.118 371.787 454.818 371.635 454.563C371.482 454.308 371.267 454.109 370.989 453.967C370.714 453.824 370.389 453.753 370.014 453.753C369.663 453.753 369.331 453.817 369.02 453.947C368.712 454.073 368.46 454.257 368.264 454.499C368.069 454.737 367.963 455.026 367.946 455.364H366.753C366.773 454.83 366.933 454.363 367.235 453.962C367.537 453.557 367.931 453.242 368.418 453.017C368.909 452.792 369.447 452.679 370.034 452.679C370.664 452.679 371.204 452.807 371.655 453.062C372.106 453.314 372.452 453.647 372.694 454.061C372.936 454.475 373.057 454.923 373.057 455.403C373.057 455.977 372.906 456.466 372.604 456.87C372.306 457.274 371.9 457.554 371.386 457.71V457.79C372.029 457.896 372.531 458.169 372.893 458.61C373.254 459.048 373.435 459.589 373.435 460.236C373.435 460.789 373.284 461.286 372.982 461.727C372.684 462.165 372.276 462.509 371.759 462.761C371.242 463.013 370.654 463.139 369.994 463.139ZM378.789 463.139C378.04 463.139 377.402 462.935 376.875 462.528C376.348 462.117 375.945 461.522 375.667 460.743C375.388 459.961 375.249 459.016 375.249 457.909C375.249 456.809 375.388 455.869 375.667 455.09C375.949 454.308 376.353 453.711 376.88 453.3C377.41 452.886 378.047 452.679 378.789 452.679C379.531 452.679 380.166 452.886 380.693 453.3C381.223 453.711 381.628 454.308 381.906 455.09C382.188 455.869 382.329 456.809 382.329 457.909C382.329 459.016 382.19 459.961 381.911 460.743C381.633 461.522 381.23 462.117 380.703 462.528C380.176 462.935 379.538 463.139 378.789 463.139ZM378.789 462.045C379.531 462.045 380.108 461.687 380.519 460.972C380.93 460.256 381.136 459.235 381.136 457.909C381.136 457.027 381.041 456.277 380.852 455.657C380.667 455.037 380.398 454.565 380.047 454.24C379.699 453.915 379.28 453.753 378.789 453.753C378.053 453.753 377.478 454.116 377.064 454.842C376.65 455.564 376.442 456.587 376.442 457.909C376.442 458.791 376.535 459.54 376.721 460.156C376.906 460.773 377.173 461.242 377.521 461.563C377.873 461.885 378.295 462.045 378.789 462.045ZM388.175 463V455.364H389.309V456.557H389.408C389.567 456.149 389.824 455.833 390.179 455.607C390.534 455.379 390.96 455.264 391.457 455.264C391.96 455.264 392.38 455.379 392.714 455.607C393.053 455.833 393.316 456.149 393.505 456.557H393.585C393.78 456.162 394.073 455.849 394.464 455.617C394.856 455.382 395.325 455.264 395.871 455.264C396.554 455.264 397.113 455.478 397.547 455.906C397.981 456.33 398.198 456.991 398.198 457.889V463H397.025V457.889C397.025 457.326 396.871 456.923 396.562 456.681C396.254 456.439 395.891 456.318 395.474 456.318C394.937 456.318 394.521 456.481 394.226 456.805C393.931 457.127 393.783 457.535 393.783 458.028V463H392.59V457.77C392.59 457.336 392.449 456.986 392.168 456.721C391.886 456.452 391.523 456.318 391.079 456.318C390.774 456.318 390.489 456.399 390.224 456.562C389.962 456.724 389.75 456.95 389.587 457.238C389.428 457.523 389.349 457.853 389.349 458.227V463H388.175ZM400.343 463V455.364H401.517V463H400.343ZM400.94 454.091C400.711 454.091 400.514 454.013 400.348 453.857C400.186 453.701 400.105 453.514 400.105 453.295C400.105 453.077 400.186 452.889 400.348 452.734C400.514 452.578 400.711 452.5 400.94 452.5C401.169 452.5 401.364 452.578 401.527 452.734C401.692 452.889 401.775 453.077 401.775 453.295C401.775 453.514 401.692 453.701 401.527 453.857C401.364 454.013 401.169 454.091 400.94 454.091ZM404.839 458.406V463H403.666V455.364H404.799V456.557H404.899C405.078 456.169 405.349 455.857 405.714 455.622C406.079 455.384 406.549 455.264 407.126 455.264C407.643 455.264 408.095 455.37 408.483 455.582C408.871 455.791 409.173 456.109 409.388 456.537C409.603 456.961 409.711 457.498 409.711 458.148V463H408.538V458.227C408.538 457.627 408.382 457.16 408.07 456.825C407.759 456.487 407.331 456.318 406.788 456.318C406.413 456.318 406.079 456.399 405.784 456.562C405.492 456.724 405.262 456.961 405.093 457.273C404.923 457.584 404.839 457.962 404.839 458.406ZM416.966 452.818V463H415.793V452.818H416.966ZM421.362 463.179C420.878 463.179 420.439 463.088 420.045 462.906C419.65 462.72 419.337 462.453 419.105 462.105C418.873 461.754 418.757 461.33 418.757 460.832C418.757 460.395 418.843 460.04 419.015 459.768C419.188 459.493 419.418 459.278 419.706 459.122C419.995 458.966 420.313 458.85 420.661 458.774C421.012 458.695 421.365 458.632 421.72 458.585C422.184 458.526 422.56 458.481 422.849 458.451C423.14 458.418 423.352 458.363 423.485 458.287C423.621 458.211 423.689 458.078 423.689 457.889V457.849C423.689 457.359 423.555 456.978 423.286 456.706C423.021 456.434 422.618 456.298 422.078 456.298C421.518 456.298 421.079 456.421 420.76 456.666C420.442 456.911 420.219 457.173 420.089 457.452L418.976 457.054C419.175 456.59 419.44 456.229 419.771 455.97C420.106 455.708 420.47 455.526 420.865 455.423C421.263 455.317 421.654 455.264 422.038 455.264C422.283 455.264 422.565 455.294 422.883 455.354C423.205 455.41 423.515 455.528 423.813 455.707C424.115 455.886 424.365 456.156 424.564 456.517C424.763 456.878 424.862 457.362 424.862 457.969V463H423.689V461.966H423.629C423.55 462.132 423.417 462.309 423.231 462.498C423.046 462.687 422.799 462.848 422.491 462.98C422.182 463.113 421.806 463.179 421.362 463.179ZM421.541 462.125C422.005 462.125 422.396 462.034 422.714 461.852C423.036 461.669 423.278 461.434 423.44 461.146C423.606 460.857 423.689 460.554 423.689 460.236V459.162C423.639 459.222 423.53 459.276 423.361 459.326C423.195 459.372 423.003 459.414 422.784 459.45C422.568 459.483 422.358 459.513 422.153 459.54C421.95 459.563 421.786 459.583 421.66 459.599C421.355 459.639 421.07 459.704 420.805 459.793C420.543 459.879 420.331 460.01 420.169 460.186C420.01 460.358 419.93 460.594 419.93 460.892C419.93 461.3 420.081 461.608 420.383 461.817C420.688 462.022 421.074 462.125 421.541 462.125ZM430.325 455.364V456.358H426.367V455.364H430.325ZM427.521 453.534H428.694V460.812C428.694 461.144 428.742 461.393 428.838 461.558C428.938 461.721 429.063 461.83 429.216 461.886C429.372 461.939 429.536 461.966 429.708 461.966C429.837 461.966 429.943 461.959 430.026 461.946C430.109 461.929 430.175 461.916 430.225 461.906L430.464 462.96C430.384 462.99 430.273 463.02 430.131 463.05C429.988 463.083 429.808 463.099 429.589 463.099C429.257 463.099 428.933 463.028 428.614 462.886C428.299 462.743 428.038 462.526 427.829 462.234C427.623 461.943 427.521 461.575 427.521 461.131V453.534ZM435.209 463.159C434.473 463.159 433.839 462.997 433.305 462.672C432.775 462.344 432.365 461.886 432.077 461.3C431.792 460.71 431.65 460.024 431.65 459.241C431.65 458.459 431.792 457.77 432.077 457.173C432.365 456.573 432.766 456.106 433.28 455.771C433.797 455.433 434.4 455.264 435.09 455.264C435.488 455.264 435.88 455.33 436.268 455.463C436.656 455.596 437.009 455.811 437.327 456.109C437.645 456.404 437.899 456.795 438.088 457.283C438.277 457.77 438.371 458.37 438.371 459.082V459.58H432.485V458.565H437.178C437.178 458.134 437.092 457.75 436.919 457.412C436.75 457.074 436.508 456.807 436.194 456.612C435.882 456.416 435.514 456.318 435.09 456.318C434.623 456.318 434.218 456.434 433.877 456.666C433.539 456.895 433.279 457.193 433.096 457.561C432.914 457.929 432.823 458.323 432.823 458.744V459.42C432.823 459.997 432.922 460.486 433.121 460.887C433.323 461.285 433.603 461.588 433.961 461.797C434.319 462.002 434.735 462.105 435.209 462.105C435.517 462.105 435.796 462.062 436.044 461.976C436.296 461.886 436.513 461.754 436.696 461.578C436.878 461.399 437.019 461.177 437.118 460.912L438.252 461.23C438.132 461.615 437.932 461.953 437.65 462.244C437.368 462.533 437.02 462.758 436.606 462.92C436.192 463.08 435.726 463.159 435.209 463.159Z" fill="#171A1F"/>
</svg>
