<svg width="16" height="16" viewBox="0 0 16 16" fill="none" xmlns="http://www.w3.org/2000/svg">
<path d="M16.0001 8.00001C15.9994 3.74441 12.6672 0.234174 8.41742 0.0121642C4.16762 -0.209846 0.487828 2.93409 0.0437457 7.16645C-0.400336 11.3988 2.54674 15.2381 6.75007 15.903L6.75007 10.3125H4.71907L4.71907 8.00001L6.75007 8.00001V6.23751C6.75007 4.23251 7.94457 3.12501 9.77157 3.12501C10.3716 3.13333 10.9702 3.18547 11.5626 3.28101L11.5626 5.25001H10.5536C10.2053 5.20375 9.85485 5.31841 9.60126 5.56159C9.34767 5.80477 9.21844 6.15009 9.25007 6.50001V8.00001H11.4691L11.1141 10.3125L9.25007 10.3125L9.25007 15.903C13.1379 15.288 16.0007 11.9362 16.0001 8.00001Z" fill="#323842"/>
</svg>
