<svg width="20" height="20" viewBox="0 0 20 20" fill="none" xmlns="http://www.w3.org/2000/svg">
<path d="M10 2.18994L10 17.8099" stroke="#E8618C" stroke-width="1.704" stroke-miterlimit="10"/>
<path d="M2.18994 10L17.8099 10" stroke="#E8618C" stroke-width="1.704" stroke-miterlimit="10"/>
<path d="M9.99997 17.8099C12.1566 17.8099 13.905 14.3133 13.905 9.99994C13.905 5.6866 12.1566 2.18994 9.99997 2.18994C7.8433 2.18994 6.09497 5.6866 6.09497 9.99994C6.09497 14.3133 7.8433 17.8099 9.99997 17.8099Z" stroke="#E8618C" stroke-width="1.704" stroke-miterlimit="10" stroke-linecap="square"/>
<path d="M9.99994 17.8099C14.3133 17.8099 17.8099 14.3133 17.8099 9.99994C17.8099 5.6866 14.3133 2.18994 9.99994 2.18994C5.6866 2.18994 2.18994 5.6866 2.18994 9.99994C2.18994 14.3133 5.6866 17.8099 9.99994 17.8099Z" stroke="#E8618C" stroke-width="1.704" stroke-miterlimit="10" stroke-linecap="square"/>
</svg>
