<svg width="36" height="36" viewBox="0 0 36 36" fill="none" xmlns="http://www.w3.org/2000/svg">
<rect width="36" height="36" rx="18" fill="#636AE8"/>
<path d="M26.347 24.6705L22.2129 20.5365C24.3628 17.5149 23.8385 13.3499 21.0067 10.9555C18.175 8.56104 13.9807 8.73623 11.3585 11.3585C8.73629 13.9807 8.5611 18.1749 10.9555 21.0067C13.3499 23.8384 17.5149 24.3628 20.5365 22.2128L24.6706 26.3469C25.1335 26.8098 25.8841 26.8098 26.347 26.3469C26.8099 25.884 26.8099 25.1334 26.347 24.6705ZM10.8938 16.4237C10.8938 13.3696 13.3696 10.8937 16.4238 10.8937C19.4779 10.8937 21.9538 13.3696 21.9538 16.4237C21.9538 19.4779 19.4779 21.9537 16.4238 21.9537C13.3711 21.9502 10.8973 19.4764 10.8938 16.4237Z" fill="white"/>
</svg>
