<svg width="35" height="35" viewBox="0 0 35 35" fill="none" xmlns="http://www.w3.org/2000/svg">
<g clip-path="url(#clip0_1_724)">
<path d="M18.5291 0.258956C18.3541 -0.154044 17.9481 -0.420044 17.5001 -0.420044C17.0521 -0.420044 16.6461 -0.154044 16.4711 0.258956L13.3841 7.46196C13.1461 8.02196 13.0201 8.61696 13.0201 9.22596V14.616L2.94008 20.496V19.18C2.94008 18.249 2.19108 17.5 1.26008 17.5C0.329078 17.5 -0.419922 18.249 -0.419922 19.18V23.1V25.34V27.02C-0.419922 27.951 0.329078 28.7 1.26008 28.7C2.19108 28.7 2.94008 27.951 2.94008 27.02V26.46H13.0201V28.749L8.92508 32.34C8.68008 32.55 8.54008 32.858 8.54008 33.18V34.3C8.54008 34.916 9.04408 35.42 9.66008 35.42H16.3801V30.94C16.3801 30.324 16.8841 29.82 17.5001 29.82C18.1161 29.82 18.6201 30.324 18.6201 30.94V35.42H25.3401C25.9561 35.42 26.4601 34.916 26.4601 34.3V33.18C26.4601 32.858 26.3201 32.55 26.0751 32.34L21.9801 28.749V26.46H32.0601V27.02C32.0601 27.951 32.8091 28.7 33.7401 28.7C34.6711 28.7 35.4201 27.951 35.4201 27.02V25.34V23.1V19.18C35.4201 18.249 34.6711 17.5 33.7401 17.5C32.8091 17.5 32.0601 18.249 32.0601 19.18V20.496L21.9801 14.616V9.22596C21.9801 8.61696 21.8541 8.02196 21.6161 7.46196L18.5291 0.258956Z" fill="#636AE8"/>
</g>
<defs>
<clipPath id="clip0_1_724">
<rect width="35" height="35" fill="white"/>
</clipPath>
</defs>
</svg>
