<svg width="36" height="36" viewBox="0 0 36 36" fill="none" xmlns="http://www.w3.org/2000/svg">
<rect width="36" height="36" stroke="#BCC1CA"/>
<path d="M25.9757 2.83395L25.9748 2.83301H10.0245C5.37103 2.83301 1.6001 6.60222 1.6001 11.2536V17.4548C1.6001 22.1042 5.37103 25.8753 10.0245 25.8753H20.1161C20.4133 25.8753 20.7005 25.983 20.9245 26.1783L26.4362 30.9852C27.2319 31.6792 28.4746 31.114 28.4746 30.0582V26.4055C28.4746 25.8665 28.8297 25.3987 29.3242 25.1843C32.3107 23.8897 34.4001 20.9175 34.4001 17.4566V11.2555C34.4001 6.60632 30.6297 2.8354 25.9766 2.83489L25.9757 2.83395Z" fill="#636AE8"/>
<path fill-rule="evenodd" clip-rule="evenodd" d="M7.66077 15.7362C8.11394 15.2421 8.88236 15.2084 9.37715 15.661C10.9679 17.1162 13.5798 18.8001 16.6344 19.2788C19.6192 19.7465 23.1386 19.0861 26.7242 15.677C27.2101 15.2149 27.9791 15.2338 28.4417 15.7191C28.9043 16.2045 28.8854 16.9725 28.3994 17.4345C24.2701 21.3607 19.9936 22.2615 16.2578 21.6761C12.592 21.1016 9.55878 19.1178 7.73608 17.4504C7.24134 16.9978 7.20764 16.2304 7.66077 15.7362Z" fill="#E8618C"/>
</svg>
