<svg width="594" height="469" viewBox="0 0 594 469" fill="none" xmlns="http://www.w3.org/2000/svg">
<path d="M1 1H593" stroke="#DEE1E6" stroke-width="2" stroke-dasharray="6"/>
<path d="M1 105.5H593" stroke="#DEE1E6" stroke-width="2" stroke-dasharray="6"/>
<path d="M1 210H593" stroke="#DEE1E6" stroke-width="2" stroke-dasharray="6"/>
<path d="M1 314.5H593" stroke="#DEE1E6" stroke-width="2" stroke-dasharray="6"/>
<path d="M1 419H593" stroke="#DEE1E6" stroke-width="2" stroke-dasharray="6"/>
<path d="M1 174.731C1 174.731 97.9112 227.247 149 210C216.311 187.276 246.331 59.7098 297 74.8031C364.731 94.9786 387.919 302.706 445 298.172C506.319 293.301 593 51.2906 593 51.2906" stroke="#636AE8" stroke-width="2"/>
<path d="M1 192.366C1 192.366 85.5207 119.321 149 104.194C203.921 91.106 254.68 87.3715 297 121.828C373.08 183.773 370.373 275.544 445 345.197C488.773 386.053 593 398.1 593 398.1" stroke="#E8618C" stroke-width="2"/>
<path d="M1 27.7781C1 27.7781 90.2452 252.111 149 251.147C208.645 250.169 236.811 25.1056 297 22.9231C355.211 20.8124 370.494 174.09 445 240.414C488.894 279.487 593 286.416 593 286.416" stroke="#22CCB2" stroke-width="2"/>
<circle cx="160.5" cy="458" r="6" fill="#636AE8"/>
<path d="M180.324 457.909C180.324 458.983 180.13 459.911 179.742 460.693C179.354 461.475 178.822 462.079 178.146 462.503C177.47 462.927 176.698 463.139 175.83 463.139C174.961 463.139 174.189 462.927 173.513 462.503C172.837 462.079 172.305 461.475 171.917 460.693C171.529 459.911 171.335 458.983 171.335 457.909C171.335 456.835 171.529 455.907 171.917 455.125C172.305 454.343 172.837 453.74 173.513 453.315C174.189 452.891 174.961 452.679 175.83 452.679C176.698 452.679 177.47 452.891 178.146 453.315C178.822 453.74 179.354 454.343 179.742 455.125C180.13 455.907 180.324 456.835 180.324 457.909ZM179.131 457.909C179.131 457.027 178.983 456.283 178.688 455.677C178.397 455.07 178 454.611 177.5 454.3C177.003 453.988 176.446 453.832 175.83 453.832C175.213 453.832 174.655 453.988 174.154 454.3C173.657 454.611 173.261 455.07 172.966 455.677C172.674 456.283 172.528 457.027 172.528 457.909C172.528 458.791 172.674 459.535 172.966 460.141C173.261 460.748 173.657 461.207 174.154 461.518C174.655 461.83 175.213 461.986 175.83 461.986C176.446 461.986 177.003 461.83 177.5 461.518C178 461.207 178.397 460.748 178.688 460.141C178.983 459.535 179.131 458.791 179.131 457.909ZM183.411 458.406V463H182.238V455.364H183.371V456.557H183.471C183.65 456.169 183.922 455.857 184.286 455.622C184.651 455.384 185.121 455.264 185.698 455.264C186.215 455.264 186.668 455.37 187.055 455.582C187.443 455.791 187.745 456.109 187.96 456.537C188.176 456.961 188.283 457.498 188.283 458.148V463H187.11V458.227C187.11 457.627 186.954 457.16 186.643 456.825C186.331 456.487 185.904 456.318 185.36 456.318C184.986 456.318 184.651 456.399 184.356 456.562C184.064 456.724 183.834 456.961 183.665 457.273C183.496 457.584 183.411 457.962 183.411 458.406ZM194.802 458.088V459.182H190.348V458.088H194.802ZM200.188 455.364V456.358H196.23V455.364H200.188ZM197.384 453.534H198.557V460.812C198.557 461.144 198.605 461.393 198.701 461.558C198.801 461.721 198.927 461.83 199.079 461.886C199.235 461.939 199.399 461.966 199.571 461.966C199.701 461.966 199.807 461.959 199.89 461.946C199.972 461.929 200.039 461.916 200.088 461.906L200.327 462.96C200.248 462.99 200.136 463.02 199.994 463.05C199.851 463.083 199.671 463.099 199.452 463.099C199.121 463.099 198.796 463.028 198.478 462.886C198.163 462.743 197.901 462.526 197.692 462.234C197.487 461.943 197.384 461.575 197.384 461.131V453.534ZM201.953 463V455.364H203.126V463H201.953ZM202.549 454.091C202.321 454.091 202.123 454.013 201.958 453.857C201.795 453.701 201.714 453.514 201.714 453.295C201.714 453.077 201.795 452.889 201.958 452.734C202.123 452.578 202.321 452.5 202.549 452.5C202.778 452.5 202.974 452.578 203.136 452.734C203.302 452.889 203.385 453.077 203.385 453.295C203.385 453.514 203.302 453.701 203.136 453.857C202.974 454.013 202.778 454.091 202.549 454.091ZM205.275 463V455.364H206.409V456.557H206.508C206.667 456.149 206.924 455.833 207.279 455.607C207.633 455.379 208.059 455.264 208.556 455.264C209.06 455.264 209.479 455.379 209.814 455.607C210.152 455.833 210.416 456.149 210.605 456.557H210.684C210.88 456.162 211.173 455.849 211.564 455.617C211.955 455.382 212.424 455.264 212.971 455.264C213.654 455.264 214.212 455.478 214.646 455.906C215.081 456.33 215.298 456.991 215.298 457.889V463H214.124V457.889C214.124 457.326 213.97 456.923 213.662 456.681C213.354 456.439 212.991 456.318 212.573 456.318C212.036 456.318 211.62 456.481 211.325 456.805C211.03 457.127 210.883 457.535 210.883 458.028V463H209.69V457.77C209.69 457.336 209.549 456.986 209.267 456.721C208.985 456.452 208.623 456.318 208.178 456.318C207.874 456.318 207.588 456.399 207.323 456.562C207.061 456.724 206.849 456.95 206.687 457.238C206.528 457.523 206.448 457.853 206.448 458.227V463H205.275ZM220.645 463.159C219.909 463.159 219.274 462.997 218.741 462.672C218.21 462.344 217.801 461.886 217.513 461.3C217.228 460.71 217.085 460.024 217.085 459.241C217.085 458.459 217.228 457.77 217.513 457.173C217.801 456.573 218.202 456.106 218.716 455.771C219.233 455.433 219.836 455.264 220.525 455.264C220.923 455.264 221.316 455.33 221.704 455.463C222.091 455.596 222.444 455.811 222.763 456.109C223.081 456.404 223.334 456.795 223.523 457.283C223.712 457.77 223.807 458.37 223.807 459.082V459.58H217.92V458.565H222.613C222.613 458.134 222.527 457.75 222.355 457.412C222.186 457.074 221.944 456.807 221.629 456.612C221.318 456.416 220.95 456.318 220.525 456.318C220.058 456.318 219.654 456.434 219.312 456.666C218.974 456.895 218.714 457.193 218.532 457.561C218.349 457.929 218.258 458.323 218.258 458.744V459.42C218.258 459.997 218.358 460.486 218.557 460.887C218.759 461.285 219.039 461.588 219.397 461.797C219.755 462.002 220.171 462.105 220.645 462.105C220.953 462.105 221.231 462.062 221.48 461.976C221.732 461.886 221.949 461.754 222.131 461.578C222.314 461.399 222.454 461.177 222.554 460.912L223.687 461.23C223.568 461.615 223.367 461.953 223.086 462.244C222.804 462.533 222.456 462.758 222.042 462.92C221.627 463.08 221.162 463.159 220.645 463.159Z" fill="#171A1F"/>
<circle cx="250.5" cy="458" r="6" fill="#E8618C"/>
<path d="M265.134 452.818V463H263.901V454.111H263.841L261.355 455.761V454.509L263.901 452.818H265.134ZM271.244 463.139C270.66 463.139 270.135 463.023 269.668 462.791C269.2 462.559 268.826 462.241 268.544 461.837C268.262 461.432 268.108 460.972 268.082 460.455H269.275C269.321 460.915 269.53 461.296 269.901 461.598C270.276 461.896 270.723 462.045 271.244 462.045C271.661 462.045 272.032 461.948 272.357 461.752C272.685 461.557 272.942 461.288 273.128 460.947C273.317 460.602 273.411 460.213 273.411 459.778C273.411 459.334 273.313 458.938 273.118 458.59C272.926 458.239 272.661 457.962 272.322 457.76C271.984 457.558 271.598 457.455 271.164 457.452C270.853 457.448 270.533 457.496 270.205 457.596C269.876 457.692 269.606 457.816 269.394 457.969L268.241 457.83L268.857 452.818H274.147V453.912H269.891L269.533 456.915H269.593C269.802 456.749 270.064 456.612 270.379 456.502C270.693 456.393 271.022 456.338 271.363 456.338C271.986 456.338 272.541 456.487 273.028 456.786C273.519 457.08 273.903 457.485 274.182 457.999C274.464 458.512 274.604 459.099 274.604 459.759C274.604 460.408 274.459 460.988 274.167 461.499C273.879 462.006 273.481 462.407 272.974 462.702C272.467 462.993 271.89 463.139 271.244 463.139ZM280.537 463V455.364H281.67V456.557H281.77C281.929 456.149 282.186 455.833 282.54 455.607C282.895 455.379 283.321 455.264 283.818 455.264C284.322 455.264 284.741 455.379 285.076 455.607C285.414 455.833 285.677 456.149 285.866 456.557H285.946C286.141 456.162 286.435 455.849 286.826 455.617C287.217 455.382 287.686 455.264 288.233 455.264C288.916 455.264 289.474 455.478 289.908 455.906C290.342 456.33 290.559 456.991 290.559 457.889V463H289.386V457.889C289.386 457.326 289.232 456.923 288.924 456.681C288.616 456.439 288.253 456.318 287.835 456.318C287.298 456.318 286.882 456.481 286.587 456.805C286.292 457.127 286.145 457.535 286.145 458.028V463H284.952V457.77C284.952 457.336 284.811 456.986 284.529 456.721C284.247 456.452 283.884 456.318 283.44 456.318C283.135 456.318 282.85 456.399 282.585 456.562C282.323 456.724 282.111 456.95 281.949 457.238C281.79 457.523 281.71 457.853 281.71 458.227V463H280.537ZM292.705 463V455.364H293.878V463H292.705ZM293.301 454.091C293.073 454.091 292.875 454.013 292.71 453.857C292.547 453.701 292.466 453.514 292.466 453.295C292.466 453.077 292.547 452.889 292.71 452.734C292.875 452.578 293.073 452.5 293.301 452.5C293.53 452.5 293.726 452.578 293.888 452.734C294.054 452.889 294.137 453.077 294.137 453.295C294.137 453.514 294.054 453.701 293.888 453.857C293.726 454.013 293.53 454.091 293.301 454.091ZM297.2 458.406V463H296.027V455.364H297.161V456.557H297.26C297.439 456.169 297.711 455.857 298.075 455.622C298.44 455.384 298.911 455.264 299.487 455.264C300.004 455.264 300.457 455.37 300.844 455.582C301.232 455.791 301.534 456.109 301.749 456.537C301.965 456.961 302.072 457.498 302.072 458.148V463H300.899V458.227C300.899 457.627 300.743 457.16 300.432 456.825C300.12 456.487 299.693 456.318 299.149 456.318C298.775 456.318 298.44 456.399 298.145 456.562C297.853 456.724 297.623 456.961 297.454 457.273C297.285 457.584 297.2 457.962 297.2 458.406ZM309.327 452.818V463H308.154V452.818H309.327ZM313.723 463.179C313.239 463.179 312.8 463.088 312.406 462.906C312.011 462.72 311.698 462.453 311.466 462.105C311.234 461.754 311.118 461.33 311.118 460.832C311.118 460.395 311.204 460.04 311.377 459.768C311.549 459.493 311.779 459.278 312.068 459.122C312.356 458.966 312.674 458.85 313.022 458.774C313.374 458.695 313.727 458.632 314.081 458.585C314.545 458.526 314.922 458.481 315.21 458.451C315.502 458.418 315.714 458.363 315.846 458.287C315.982 458.211 316.05 458.078 316.05 457.889V457.849C316.05 457.359 315.916 456.978 315.647 456.706C315.382 456.434 314.98 456.298 314.439 456.298C313.879 456.298 313.44 456.421 313.122 456.666C312.804 456.911 312.58 457.173 312.451 457.452L311.337 457.054C311.536 456.59 311.801 456.229 312.132 455.97C312.467 455.708 312.832 455.526 313.226 455.423C313.624 455.317 314.015 455.264 314.4 455.264C314.645 455.264 314.926 455.294 315.245 455.354C315.566 455.41 315.876 455.528 316.174 455.707C316.476 455.886 316.726 456.156 316.925 456.517C317.124 456.878 317.223 457.362 317.223 457.969V463H316.05V461.966H315.99C315.911 462.132 315.778 462.309 315.593 462.498C315.407 462.687 315.16 462.848 314.852 462.98C314.544 463.113 314.167 463.179 313.723 463.179ZM313.902 462.125C314.366 462.125 314.757 462.034 315.076 461.852C315.397 461.669 315.639 461.434 315.801 461.146C315.967 460.857 316.05 460.554 316.05 460.236V459.162C316 459.222 315.891 459.276 315.722 459.326C315.556 459.372 315.364 459.414 315.145 459.45C314.93 459.483 314.719 459.513 314.514 459.54C314.312 459.563 314.148 459.583 314.022 459.599C313.717 459.639 313.432 459.704 313.167 459.793C312.905 459.879 312.693 460.01 312.53 460.186C312.371 460.358 312.292 460.594 312.292 460.892C312.292 461.3 312.442 461.608 312.744 461.817C313.049 462.022 313.435 462.125 313.902 462.125ZM322.686 455.364V456.358H318.729V455.364H322.686ZM319.882 453.534H321.055V460.812C321.055 461.144 321.103 461.393 321.199 461.558C321.299 461.721 321.425 461.83 321.577 461.886C321.733 461.939 321.897 461.966 322.069 461.966C322.199 461.966 322.305 461.959 322.388 461.946C322.47 461.929 322.537 461.916 322.586 461.906L322.825 462.96C322.746 462.99 322.635 463.02 322.492 463.05C322.349 463.083 322.169 463.099 321.95 463.099C321.619 463.099 321.294 463.028 320.976 462.886C320.661 462.743 320.399 462.526 320.19 462.234C319.985 461.943 319.882 461.575 319.882 461.131V453.534ZM327.57 463.159C326.835 463.159 326.2 462.997 325.666 462.672C325.136 462.344 324.727 461.886 324.438 461.3C324.153 460.71 324.011 460.024 324.011 459.241C324.011 458.459 324.153 457.77 324.438 457.173C324.727 456.573 325.128 456.106 325.642 455.771C326.159 455.433 326.762 455.264 327.451 455.264C327.849 455.264 328.242 455.33 328.629 455.463C329.017 455.596 329.37 455.811 329.688 456.109C330.007 456.404 330.26 456.795 330.449 457.283C330.638 457.77 330.732 458.37 330.732 459.082V459.58H324.846V458.565H329.539C329.539 458.134 329.453 457.75 329.281 457.412C329.112 457.074 328.87 456.807 328.555 456.612C328.243 456.416 327.875 456.318 327.451 456.318C326.984 456.318 326.579 456.434 326.238 456.666C325.9 456.895 325.64 457.193 325.458 457.561C325.275 457.929 325.184 458.323 325.184 458.744V459.42C325.184 459.997 325.284 460.486 325.482 460.887C325.685 461.285 325.965 461.588 326.323 461.797C326.681 462.002 327.097 462.105 327.57 462.105C327.879 462.105 328.157 462.062 328.406 461.976C328.658 461.886 328.875 461.754 329.057 461.578C329.239 461.399 329.38 461.177 329.48 460.912L330.613 461.23C330.494 461.615 330.293 461.953 330.012 462.244C329.73 462.533 329.382 462.758 328.968 462.92C328.553 463.08 328.088 463.159 327.57 463.159Z" fill="#171A1F"/>
<circle cx="356.5" cy="458" r="6" fill="#22CCB2"/>
<path d="M370.994 463.139C370.338 463.139 369.753 463.027 369.239 462.801C368.729 462.576 368.323 462.263 368.021 461.862C367.723 461.457 367.561 460.988 367.534 460.455H368.787C368.813 460.783 368.926 461.066 369.125 461.305C369.324 461.54 369.584 461.722 369.906 461.852C370.227 461.981 370.583 462.045 370.974 462.045C371.412 462.045 371.8 461.969 372.138 461.817C372.476 461.664 372.741 461.452 372.933 461.18C373.125 460.909 373.222 460.594 373.222 460.236C373.222 459.861 373.129 459.531 372.943 459.246C372.758 458.958 372.486 458.733 372.128 458.57C371.77 458.408 371.332 458.327 370.815 458.327H370V457.233H370.815C371.22 457.233 371.574 457.16 371.879 457.014C372.188 456.868 372.428 456.663 372.6 456.398C372.776 456.133 372.864 455.821 372.864 455.463C372.864 455.118 372.787 454.818 372.635 454.563C372.482 454.308 372.267 454.109 371.989 453.967C371.714 453.824 371.389 453.753 371.014 453.753C370.663 453.753 370.331 453.817 370.02 453.947C369.712 454.073 369.46 454.257 369.264 454.499C369.069 454.737 368.963 455.026 368.946 455.364H367.753C367.773 454.83 367.933 454.363 368.235 453.962C368.537 453.557 368.931 453.242 369.418 453.017C369.909 452.792 370.447 452.679 371.034 452.679C371.664 452.679 372.204 452.807 372.655 453.062C373.106 453.314 373.452 453.647 373.694 454.061C373.936 454.475 374.057 454.923 374.057 455.403C374.057 455.977 373.906 456.466 373.604 456.87C373.306 457.274 372.9 457.554 372.386 457.71V457.79C373.029 457.896 373.531 458.169 373.893 458.61C374.254 459.048 374.435 459.589 374.435 460.236C374.435 460.789 374.284 461.286 373.982 461.727C373.684 462.165 373.276 462.509 372.759 462.761C372.242 463.013 371.654 463.139 370.994 463.139ZM379.789 463.139C379.04 463.139 378.402 462.935 377.875 462.528C377.348 462.117 376.945 461.522 376.667 460.743C376.388 459.961 376.249 459.016 376.249 457.909C376.249 456.809 376.388 455.869 376.667 455.09C376.949 454.308 377.353 453.711 377.88 453.3C378.41 452.886 379.047 452.679 379.789 452.679C380.531 452.679 381.166 452.886 381.693 453.3C382.223 453.711 382.628 454.308 382.906 455.09C383.188 455.869 383.329 456.809 383.329 457.909C383.329 459.016 383.19 459.961 382.911 460.743C382.633 461.522 382.23 462.117 381.703 462.528C381.176 462.935 380.538 463.139 379.789 463.139ZM379.789 462.045C380.531 462.045 381.108 461.687 381.519 460.972C381.93 460.256 382.136 459.235 382.136 457.909C382.136 457.027 382.041 456.277 381.852 455.657C381.667 455.037 381.398 454.565 381.047 454.24C380.699 453.915 380.28 453.753 379.789 453.753C379.053 453.753 378.478 454.116 378.064 454.842C377.65 455.564 377.442 456.587 377.442 457.909C377.442 458.791 377.535 459.54 377.721 460.156C377.906 460.773 378.173 461.242 378.521 461.563C378.873 461.885 379.295 462.045 379.789 462.045ZM389.175 463V455.364H390.309V456.557H390.408C390.567 456.149 390.824 455.833 391.179 455.607C391.534 455.379 391.96 455.264 392.457 455.264C392.96 455.264 393.38 455.379 393.714 455.607C394.053 455.833 394.316 456.149 394.505 456.557H394.585C394.78 456.162 395.073 455.849 395.464 455.617C395.856 455.382 396.325 455.264 396.871 455.264C397.554 455.264 398.113 455.478 398.547 455.906C398.981 456.33 399.198 456.991 399.198 457.889V463H398.025V457.889C398.025 457.326 397.871 456.923 397.562 456.681C397.254 456.439 396.891 456.318 396.474 456.318C395.937 456.318 395.521 456.481 395.226 456.805C394.931 457.127 394.783 457.535 394.783 458.028V463H393.59V457.77C393.59 457.336 393.449 456.986 393.168 456.721C392.886 456.452 392.523 456.318 392.079 456.318C391.774 456.318 391.489 456.399 391.224 456.562C390.962 456.724 390.75 456.95 390.587 457.238C390.428 457.523 390.349 457.853 390.349 458.227V463H389.175ZM401.343 463V455.364H402.517V463H401.343ZM401.94 454.091C401.711 454.091 401.514 454.013 401.348 453.857C401.186 453.701 401.105 453.514 401.105 453.295C401.105 453.077 401.186 452.889 401.348 452.734C401.514 452.578 401.711 452.5 401.94 452.5C402.169 452.5 402.364 452.578 402.527 452.734C402.692 452.889 402.775 453.077 402.775 453.295C402.775 453.514 402.692 453.701 402.527 453.857C402.364 454.013 402.169 454.091 401.94 454.091ZM405.839 458.406V463H404.666V455.364H405.799V456.557H405.899C406.078 456.169 406.349 455.857 406.714 455.622C407.079 455.384 407.549 455.264 408.126 455.264C408.643 455.264 409.095 455.37 409.483 455.582C409.871 455.791 410.173 456.109 410.388 456.537C410.603 456.961 410.711 457.498 410.711 458.148V463H409.538V458.227C409.538 457.627 409.382 457.16 409.07 456.825C408.759 456.487 408.331 456.318 407.788 456.318C407.413 456.318 407.079 456.399 406.784 456.562C406.492 456.724 406.262 456.961 406.093 457.273C405.923 457.584 405.839 457.962 405.839 458.406ZM417.966 452.818V463H416.793V452.818H417.966ZM422.362 463.179C421.878 463.179 421.439 463.088 421.045 462.906C420.65 462.72 420.337 462.453 420.105 462.105C419.873 461.754 419.757 461.33 419.757 460.832C419.757 460.395 419.843 460.04 420.015 459.768C420.188 459.493 420.418 459.278 420.706 459.122C420.995 458.966 421.313 458.85 421.661 458.774C422.012 458.695 422.365 458.632 422.72 458.585C423.184 458.526 423.56 458.481 423.849 458.451C424.14 458.418 424.352 458.363 424.485 458.287C424.621 458.211 424.689 458.078 424.689 457.889V457.849C424.689 457.359 424.555 456.978 424.286 456.706C424.021 456.434 423.618 456.298 423.078 456.298C422.518 456.298 422.079 456.421 421.76 456.666C421.442 456.911 421.219 457.173 421.089 457.452L419.976 457.054C420.175 456.59 420.44 456.229 420.771 455.97C421.106 455.708 421.47 455.526 421.865 455.423C422.263 455.317 422.654 455.264 423.038 455.264C423.283 455.264 423.565 455.294 423.883 455.354C424.205 455.41 424.515 455.528 424.813 455.707C425.115 455.886 425.365 456.156 425.564 456.517C425.763 456.878 425.862 457.362 425.862 457.969V463H424.689V461.966H424.629C424.55 462.132 424.417 462.309 424.231 462.498C424.046 462.687 423.799 462.848 423.491 462.98C423.182 463.113 422.806 463.179 422.362 463.179ZM422.541 462.125C423.005 462.125 423.396 462.034 423.714 461.852C424.036 461.669 424.278 461.434 424.44 461.146C424.606 460.857 424.689 460.554 424.689 460.236V459.162C424.639 459.222 424.53 459.276 424.361 459.326C424.195 459.372 424.003 459.414 423.784 459.45C423.568 459.483 423.358 459.513 423.153 459.54C422.95 459.563 422.786 459.583 422.66 459.599C422.355 459.639 422.07 459.704 421.805 459.793C421.543 459.879 421.331 460.01 421.169 460.186C421.01 460.358 420.93 460.594 420.93 460.892C420.93 461.3 421.081 461.608 421.383 461.817C421.688 462.022 422.074 462.125 422.541 462.125ZM431.325 455.364V456.358H427.367V455.364H431.325ZM428.521 453.534H429.694V460.812C429.694 461.144 429.742 461.393 429.838 461.558C429.938 461.721 430.063 461.83 430.216 461.886C430.372 461.939 430.536 461.966 430.708 461.966C430.837 461.966 430.943 461.959 431.026 461.946C431.109 461.929 431.175 461.916 431.225 461.906L431.464 462.96C431.384 462.99 431.273 463.02 431.131 463.05C430.988 463.083 430.808 463.099 430.589 463.099C430.257 463.099 429.933 463.028 429.614 462.886C429.299 462.743 429.038 462.526 428.829 462.234C428.623 461.943 428.521 461.575 428.521 461.131V453.534ZM436.209 463.159C435.473 463.159 434.839 462.997 434.305 462.672C433.775 462.344 433.365 461.886 433.077 461.3C432.792 460.71 432.65 460.024 432.65 459.241C432.65 458.459 432.792 457.77 433.077 457.173C433.365 456.573 433.766 456.106 434.28 455.771C434.797 455.433 435.4 455.264 436.09 455.264C436.488 455.264 436.88 455.33 437.268 455.463C437.656 455.596 438.009 455.811 438.327 456.109C438.645 456.404 438.899 456.795 439.088 457.283C439.277 457.77 439.371 458.37 439.371 459.082V459.58H433.485V458.565H438.178C438.178 458.134 438.092 457.75 437.919 457.412C437.75 457.074 437.508 456.807 437.194 456.612C436.882 456.416 436.514 456.318 436.09 456.318C435.623 456.318 435.218 456.434 434.877 456.666C434.539 456.895 434.279 457.193 434.096 457.561C433.914 457.929 433.823 458.323 433.823 458.744V459.42C433.823 459.997 433.922 460.486 434.121 460.887C434.323 461.285 434.603 461.588 434.961 461.797C435.319 462.002 435.735 462.105 436.209 462.105C436.517 462.105 436.796 462.062 437.044 461.976C437.296 461.886 437.513 461.754 437.696 461.578C437.878 461.399 438.019 461.177 438.118 460.912L439.252 461.23C439.132 461.615 438.932 461.953 438.65 462.244C438.368 462.533 438.02 462.758 437.606 462.92C437.192 463.08 436.726 463.159 436.209 463.159Z" fill="#171A1F"/>
</svg>
