<svg width="20" height="20" viewBox="0 0 20 20" fill="none" xmlns="http://www.w3.org/2000/svg">
<path d="M7.1478 10.02C7.1477 9.74462 6.98833 9.49411 6.73891 9.37731C6.48949 9.26051 6.19502 9.29849 5.9834 9.47475L1.7234 13.0248C1.56877 13.1638 1.48047 13.362 1.48047 13.57C1.48047 13.778 1.56877 13.9762 1.7234 14.1153L5.9834 17.6653C6.19502 17.8416 6.48949 17.8796 6.73891 17.7628C6.98833 17.646 7.1477 17.3954 7.1478 17.12V14.28H12.8278C13.2199 14.28 13.5378 13.9622 13.5378 13.57C13.5378 13.1779 13.2199 12.86 12.8278 12.86H7.1478L7.1478 10.02Z" fill="#323842"/>
<path d="M12.8548 2.88002V5.72002H7.17484C6.78272 5.72002 6.46484 6.03789 6.46484 6.43002C6.46484 6.82214 6.78272 7.14002 7.17484 7.14002H12.8548V9.98002C12.8549 10.2554 13.0143 10.5059 13.2637 10.6227C13.5132 10.7395 13.8076 10.7016 14.0192 10.5253L18.2792 6.9753C18.441 6.8404 18.5345 6.64064 18.5345 6.43002C18.5345 6.21939 18.441 6.01963 18.2792 5.88474L14.0192 2.33474C13.8076 2.15847 13.5132 2.12049 13.2637 2.23729C13.0143 2.3541 12.8549 2.6046 12.8548 2.88002Z" fill="#323842"/>
</svg>
