<svg width="17" height="14" viewBox="0 0 17 14" fill="none" xmlns="http://www.w3.org/2000/svg">
<path d="M17.0051 2.05C16.4051 2.3 15.8051 2.5 15.1051 2.55C15.8051 2.15 16.3051 1.5 16.5551 0.75C15.9051 1.15 15.2051 1.4 14.4551 1.55C13.8551 0.9 13.0051 0.5 12.1051 0.5C10.3051 0.5 8.80508 1.95 8.80508 3.8C8.80508 4.05 8.85508 4.3 8.90508 4.55C6.15508 4.4 3.75508 3.1 2.10508 1.1C1.80508 1.6 1.65508 2.15 1.65508 2.75C1.65508 3.9 2.25508 4.9 3.10508 5.5C2.55508 5.5 2.05508 5.35 1.60508 5.1V5.15C1.60508 6.75 2.75508 8.05 4.25508 8.35C3.95508 8.4 3.70508 8.45 3.40508 8.45C3.20508 8.45 3.00508 8.45 2.80508 8.4C3.20508 9.7 4.45508 10.65 5.85508 10.7C4.75508 11.6 3.30508 12.1 1.75508 12.1C1.50508 12.1 1.20508 12.1 0.955078 12.05C2.45508 12.95 4.20508 13.5 6.05508 13.5C12.1051 13.5 15.4051 8.5 15.4051 4.15C15.4051 4 15.4051 3.85 15.4051 3.75C16.0051 3.25 16.5551 2.7 17.0051 2.05Z" fill="#323842"/>
</svg>
