<svg width="14" height="14" viewBox="0 0 14 14" fill="none" xmlns="http://www.w3.org/2000/svg">
<path d="M12.7 0.159973L1.29998 0.159973C0.985178 0.159973 0.72998 0.415171 0.72998 0.729973L0.72998 2.43997C0.730013 2.59113 0.790087 2.73609 0.89699 2.84296L5.28998 7.23595L5.28998 13.27C5.28998 13.4859 5.41196 13.6832 5.60507 13.7798C5.79818 13.8763 6.02926 13.8555 6.20198 13.726L8.48198 12.016C8.62551 11.9083 8.70998 11.7394 8.70998 11.56L8.70998 7.23595L13.103 2.84296C13.2099 2.73609 13.2699 2.59113 13.27 2.43997V0.729973C13.27 0.415171 13.0148 0.159973 12.7 0.159973Z" fill="#636AE8"/>
</svg>
